# xmcd
#
# Track frame offsets: 
#        150
#        2226
#        8898
#        15840
#        24423
#        31499
#        39413
#        45667
#        54533
#        57830
#        67758
#        79114
#        87023
#        99539
#        104366
#        111996
#        118732
#        127533
#        133649
#        146010
#        152405
#        159755
#        170411
#        178978
#        186958
#        197534
#        204550
#        214632
#        220701
#        229693
#        233298
#
# Disc length: 3156 seconds
#
# Revision: 2
# Processed by: cddbd v1.5.2PL0 Copyright (c) Steve Scherf et al.
# Submitted via: ExactAudioCopy v1.0b3
#
DISCID=850c521f
DTITLE=Tennessee Ernie Ford - The Real Thing! (Jasmine)
DYEAR=2000
DGENRE=Country
TTITLE0=Opening Theme
TTITLE1=Floatin' Down To Cotton Town
TTITLE2=My Little Girl
TTITLE3=I Wonder Who's Kissing Her Now
TTITLE4=Cimarron
TTITLE5=Pliney Jane
TTITLE6=John Henry
TTITLE7=Red Sails In The Sunset
TTITLE8=Comedy Sequence
TTITLE9=Ford, Tennessee Ernie with Speedy West - Railroadin'
TTITLE10=Jealous Heart
TTITLE11=Goin' Steady
TTITLE12=Take Me Back And Try Me One More Time
TTITLE13=Pretty Little Pink
TTITLE14=Southern Belle (From Nashville, Tennessee)
TTITLE15=Wedding Bells Are Breaking Up That Old Gang Of Mine
TTITLE16=Whe The Red, Red Robin (Comes Bob, Bob Bobbin' Along)
TTITLE17=Lazy River
TTITLE18=I'm Too Sad To Laugh, And I'm Too Mean To Cry
TTITLE19=San Fernando Valley
TTITLE20=They Were Doin' The Mambo
TTITLE21=I Ain't Got Nobody
TTITLE22=Cinnamon Sinner
TTITLE23=Ford, Tennessee Ernie with Speedy West - Crackerjack
TTITLE24=Girl Of My Dreams
TTITLE25=Sunbonnet Sue
TTITLE26=Tumbling Tumbleweeds
TTITLE27=Hoop Dee-Doo
TTITLE28=Until The Real Thing Comes Along
TTITLE29=Ford, Tennessee Ernie with Harold Hensley - Tennessee Wagoner
TTITLE30=Closing Theme
EXTD=
EXTT0=
EXTT1=
EXTT2=
EXTT3=
EXTT4=
EXTT5=
EXTT6=
EXTT7=
EXTT8=
EXTT9=
EXTT10=
EXTT11=
EXTT12=
EXTT13=
EXTT14=
EXTT15=
EXTT16=
EXTT17=
EXTT18=
EXTT19=
EXTT20=
EXTT21=
EXTT22=
EXTT23=
EXTT24=
EXTT25=
EXTT26=
EXTT27=
EXTT28=
EXTT29=
EXTT30=
PLAYORDER=
